<?xml version="1.0" encoding="utf-8"?>
<!-- Generator: Adobe Illustrator 16.0.0, SVG Export Plug-In . SVG Version: 6.00 Build 0)  -->
<!DOCTYPE svg PUBLIC "-//W3C//DTD SVG 1.1//EN" "http://www.w3.org/Graphics/SVG/1.1/DTD/svg11.dtd">
<svg version="1.1" id="Layer_1" xmlns="http://www.w3.org/2000/svg" xmlns:xlink="http://www.w3.org/1999/xlink" x="0px" y="0px"
	 width="229.426px" height="40.5px" viewBox="0 0 229.426 40.5" enable-background="new 0 0 229.426 40.5" xml:space="preserve">
<g>
	<path d="M17.127,6.777c1.954,0,3.786,0.367,5.496,1.1c1.71,0.732,3.216,1.75,4.52,3.053l-3.379,3.338
		c-1.819-1.845-4.031-2.769-6.636-2.769c-2.579,0-4.804,0.923-6.677,2.769c-1.819,1.846-2.728,4.058-2.728,6.636
		c0,2.579,0.909,4.804,2.728,6.677c1.873,1.818,4.098,2.728,6.677,2.728c1.411,0,2.721-0.277,3.929-0.834
		c1.208-0.557,2.26-1.338,3.155-2.342v-3.867h-7.084v-4.683h11.807v10.097c-0.651,0.951-1.404,1.818-2.26,2.605
		c-0.854,0.788-1.785,1.46-2.789,2.016c-1.004,0.557-2.077,0.984-3.216,1.283s-2.32,0.447-3.542,0.447
		c-3.908,0-7.233-1.385-9.975-4.152C4.384,28.138,3,24.813,3,20.905c0-3.881,1.384-7.206,4.153-9.975
		C9.894,8.162,13.219,6.777,17.127,6.777z"/>
	<path d="M55.194,35.032l-5.456-9.404h-7.979v9.404h-4.682V6.777h14.127c2.578,0,4.79,0.923,6.636,2.769
		c1.845,1.846,2.769,4.058,2.769,6.636c0,1.954-0.557,3.732-1.669,5.333c-1.086,1.574-2.47,2.701-4.153,3.379l5.822,10.138H55.194z
		 M51.204,11.5h-9.445v9.364l9.445,0.041c1.275,0,2.375-0.461,3.297-1.384c0.923-0.922,1.385-2.036,1.385-3.338
		c0-1.275-0.462-2.375-1.385-3.298C53.579,11.962,52.479,11.5,51.204,11.5z"/>
	<path d="M92.283,23.267c0,3.257-1.154,6.039-3.461,8.346c-2.334,2.279-5.116,3.42-8.346,3.42c-3.203,0-5.972-1.141-8.306-3.42
		c-2.28-2.334-3.42-5.115-3.42-8.346V6.777h4.682v16.489c0,1.953,0.678,3.609,2.036,4.967c1.384,1.384,3.054,2.076,5.008,2.076
		s3.609-0.692,4.967-2.076c1.411-1.385,2.117-3.039,2.117-4.967V6.777h4.723V23.267z"/>
	<path d="M121.473,20.905c1.655,1.602,2.483,3.569,2.483,5.903c0,1.113-0.218,2.172-0.651,3.176
		c-0.435,1.005-1.025,1.881-1.771,2.627s-1.621,1.336-2.625,1.771c-1.005,0.435-2.063,0.651-3.176,0.651h-15.308V6.777h15.308
		c1.085,0,2.137,0.218,3.155,0.651c1.019,0.435,1.9,1.025,2.646,1.771c0.746,0.747,1.337,1.623,1.771,2.626
		c0.434,1.005,0.651,2.063,0.651,3.176C123.957,17.309,123.128,19.276,121.473,20.905z M115.732,11.5h-10.626v7.084h10.626
		c0.461,0,0.909-0.095,1.344-0.285c0.434-0.189,0.813-0.448,1.14-0.773c0.325-0.326,0.576-0.706,0.753-1.14
		c0.176-0.434,0.265-0.896,0.265-1.384c0-0.461-0.089-0.909-0.265-1.343c-0.177-0.434-0.428-0.814-0.753-1.14
		c-0.326-0.326-0.706-0.576-1.14-0.753C116.641,11.589,116.194,11.5,115.732,11.5z M115.732,30.31c0.461,0,0.909-0.088,1.344-0.265
		c0.434-0.177,0.813-0.428,1.14-0.753c0.325-0.326,0.576-0.705,0.753-1.141c0.176-0.434,0.265-0.881,0.265-1.344
		c0-0.461-0.089-0.908-0.265-1.343c-0.177-0.435-0.421-0.814-0.732-1.14c-0.312-0.326-0.686-0.584-1.12-0.773
		s-0.896-0.285-1.384-0.285h-10.626v7.043H115.732z"/>
	<path d="M150.908,6.777V11.5h-14.127v9.364h14.127v4.764h-14.127v9.404h-4.683V6.777H150.908z"/>
	<path d="M159.049,6.777h4.683V30.31h14.127v4.723h-18.81V6.777z"/>
	<path d="M186,6.777h4.682v28.255H186V6.777z"/>
	<path d="M220.932,6.777h5.984l-11.033,14.127l11.033,14.127h-5.984l-8.062-10.301l-8.021,10.301h-6.025l11.074-14.127
		L198.825,6.777h6.025l8.021,10.3L220.932,6.777z"/>
</g>
</svg>
