<?xml version="1.0" encoding="utf-8"?>
<!-- Generator: Adobe Illustrator 16.0.0, SVG Export Plug-In . SVG Version: 6.00 Build 0)  -->
<!DOCTYPE svg PUBLIC "-//W3C//DTD SVG 1.1//EN" "http://www.w3.org/Graphics/SVG/1.1/DTD/svg11.dtd">
<svg version="1.1" id="Layer_1" xmlns="http://www.w3.org/2000/svg" xmlns:xlink="http://www.w3.org/1999/xlink" x="0px" y="0px"
	 width="866.901px" height="132.395px" viewBox="0 0 866.901 132.395" enable-background="new 0 0 866.901 132.395"
	 xml:space="preserve">
<g>
	<g>
		<path fill="#414042" d="M12.452,56.881l3.455,18.899l78.881-14.422l-3.456-18.899L12.452,56.881z M52.92,54.578l8.782-1.605
			l-7.386,10.69l-8.781,1.606L52.92,54.578z M36.24,66.968l-8.782,1.605l7.386-10.69l8.782-1.606L36.24,66.968z M70.998,51.272
			l8.782-1.605l-7.386,10.689l-8.782,1.605L70.998,51.272z M25.548,59.582l-5.938,8.596l-1.329-7.269L25.548,59.582z M81.689,58.659
			l5.938-8.597l1.329,7.268L81.689,58.659z"/>
		<path fill="#414042" d="M15.906,75.78v46.777h80.189V75.78H15.906z M89.412,101.675H22.649V82.461h66.763V101.675z"/>
	</g>
	<g>
		<path fill="#414042" d="M257.952,128.297c-20.172,0-36.584-16.412-36.584-36.585c0-20.174,16.413-36.585,36.584-36.585
			c19.596,0,35.638,15.486,36.542,34.861l2.392-0.076c-0.657-21.104-17.955-38.013-39.219-38.013
			c-21.675,0-39.25,17.574-39.25,39.251c0,21.678,17.575,39.251,39.25,39.251c9.029,0,17.342-3.058,23.975-8.182l-1.261-1.637
			C274.18,125.411,266.397,128.297,257.952,128.297z"/>
		<path fill="#414042" d="M304.772,94.027l-2.637,0.085c-0.027,12.001-5.869,22.666-14.847,29.322l2.238,2.899
			c9.289-7.18,15.277-18.421,15.277-31.067C304.803,94.85,304.784,94.44,304.772,94.027z"/>
		<path fill="#414042" d="M298.947,94.21l-33.396,1.056l19.774,25.624C293.527,114.837,298.887,105.151,298.947,94.21z
			 M290.75,96.823c1.544,0,2.795,1.252,2.795,2.796c0,1.545-1.253,2.795-2.795,2.795c-1.543,0-2.795-1.252-2.795-2.795
			S289.207,96.823,290.75,96.823z M279.453,103.763c-1.543,0-2.793-1.252-2.793-2.795c0-1.547,1.251-2.797,2.793-2.797
			c1.544,0,2.795,1.251,2.795,2.797C282.249,102.51,280.998,103.763,279.453,103.763z M286.398,111.84
			c-1.545,0-2.796-1.251-2.796-2.795c0-1.545,1.252-2.795,2.796-2.795c1.545,0,2.796,1.251,2.796,2.795
			C289.197,110.589,287.943,111.84,286.398,111.84z"/>
		<path fill="#414042" d="M257.952,58.304c-18.418,0-33.407,14.989-33.407,33.408c0,18.42,14.989,33.406,33.407,33.406
			c7.716,0,14.813-2.658,20.472-7.067L257.667,91.15l33.609-1.06C290.42,72.425,275.824,58.304,257.952,58.304z M267.344,112.697
			c1.546,0,2.797,1.252,2.797,2.797s-1.253,2.796-2.797,2.796s-2.796-1.251-2.796-2.796S265.8,112.697,267.344,112.697z
			 M234.096,87.013c-1.544,0-2.795-1.252-2.795-2.795c0-1.545,1.252-2.796,2.795-2.796c1.544,0,2.796,1.253,2.796,2.796
			C236.893,85.76,235.64,87.013,234.096,87.013z M236.893,96.823c0-1.545,1.251-2.796,2.796-2.796c1.545,0,2.797,1.251,2.797,2.796
			c0,1.544-1.252,2.795-2.797,2.795C238.144,99.619,236.893,98.369,236.893,96.823z M240.828,112.977
			c-1.542,0-2.794-1.253-2.794-2.794c0-1.546,1.254-2.798,2.794-2.798c1.547,0,2.797,1.254,2.797,2.798
			C243.625,111.724,242.375,112.977,240.828,112.977z M243.625,77.274c-1.545,0-2.797-1.252-2.797-2.794
			c0-1.546,1.254-2.796,2.797-2.796c1.545,0,2.798,1.252,2.798,2.796C246.423,76.021,245.17,77.274,243.625,77.274z M247.251,88.355
			c0-1.545,1.252-2.798,2.795-2.798c1.546,0,2.798,1.255,2.798,2.798c0,1.543-1.252,2.795-2.798,2.795
			C248.503,91.15,247.251,89.898,247.251,88.355z M252.845,111.84c-1.547,0-2.798-1.251-2.798-2.795
			c0-1.545,1.254-2.795,2.798-2.795c1.543,0,2.795,1.251,2.795,2.795C255.643,110.589,254.39,111.84,252.845,111.84z
			 M256.157,65.883c0-1.545,1.255-2.797,2.799-2.797c1.542,0,2.795,1.252,2.795,2.797c0,1.544-1.253,2.795-2.795,2.795
			C257.412,68.678,256.157,67.427,256.157,65.883z M261.749,82.868c-1.542,0-2.792-1.253-2.792-2.796
			c0-1.545,1.253-2.797,2.792-2.797c1.546,0,2.798,1.253,2.798,2.797C264.547,81.616,263.295,82.868,261.749,82.868z
			 M275.732,78.624c-1.545,0-2.797-1.253-2.797-2.797c0-1.545,1.252-2.797,2.797-2.797c1.545,0,2.797,1.252,2.797,2.797
			C278.529,77.371,277.277,78.624,275.732,78.624z"/>
	</g>
	<g>
		<path fill="#414042" d="M488.142,108.832c-2.976,0-5.671,1.208-7.623,3.159c-1.951,1.95-3.161,4.647-3.161,7.626
			c0,2.978,1.21,5.673,3.161,7.625c1.95,1.952,4.647,3.159,7.623,3.159c2.979,0,5.675-1.207,7.628-3.159
			c1.953-1.951,3.161-4.647,3.161-7.625c0-2.979-1.209-5.674-3.161-7.626C493.82,110.039,491.12,108.832,488.142,108.832z
			 M488.142,124.231c-2.539,0-4.614-2.075-4.614-4.615c0-2.541,2.075-4.616,4.614-4.616c2.545,0,4.616,2.075,4.616,4.616
			C492.758,122.157,490.687,124.231,488.142,124.231z"/>
		<circle fill="#414042" cx="497.367" cy="86.011" r="2.932"/>
		<path fill="#414042" d="M583.269,94.435c0-1.857-0.655-3.456-1.961-4.779l-18.089-18.32c-4.388-4.444-9.761-6.691-16.008-6.691
			h-1.16v-8.383h-77.745v15.085h-18.754c-1.085,0-1.963,0.877-1.963,1.963c0,1.083,0.88,1.962,1.963,1.962h18.754v41.895h7.329
			c0.493-2.538,1.738-4.804,3.496-6.562c2.305-2.308,5.492-3.734,9.011-3.734c3.521,0,6.709,1.426,9.015,3.734
			c1.759,1.758,3.004,4.024,3.498,6.562h19.751h25.646h2.484c0.494-2.538,1.738-4.804,3.496-6.562
			c2.306-2.308,5.491-3.734,9.013-3.734s6.707,1.426,9.013,3.734c1.755,1.758,3.005,4.024,3.498,6.562h3.176
			c3.601,0,6.538-2.938,6.538-6.539V94.435z M508.21,86.913c-0.109-0.453-0.33-0.881-0.664-1.253
			c-1.082-1.207-2.937-1.303-4.14-0.224c-0.899,0.809-1.186,2.046-0.818,3.124l-11.799,3.454l5.534-13.36
			c0.075,0.104,0.155,0.208,0.243,0.307c1.206,1.344,3.274,1.455,4.616,0.249c1.343-1.204,1.453-3.272,0.248-4.615
			c-0.781-0.871-1.925-1.222-2.997-1.036l1.183-2.855c2.558,2.168,4.948,4.486,7.167,6.957c2.222,2.475,4.271,5.098,6.147,7.872
			L508.21,86.913z M518.707,85.577c-1.197,1.075-3.248,1.122-4.131-0.224c-4.039-6.133-8.9-11.528-14.554-16.213
			c-1.237-1.027-0.974-3.058,0.225-4.133c1.199-1.077,2.895-0.805,4.134,0.223c5.651,4.685,10.448,10.139,14.551,16.211
			C519.832,82.778,519.908,84.502,518.707,85.577z M546.327,86.588v-15.83l4.939,0.003c2.618,0.003,4.863,0.947,6.7,2.809
			l12.829,13.017H546.327z"/>
		<path fill="#414042" d="M561.044,108.832c-2.978,0-5.671,1.208-7.626,3.159c-1.951,1.95-3.156,4.647-3.156,7.626
			c0,2.978,1.205,5.673,3.156,7.625c1.954,1.954,4.648,3.159,7.626,3.159c2.979,0,5.676-1.207,7.627-3.159
			c1.952-1.951,3.159-4.647,3.159-7.625c0-2.979-1.207-5.674-3.159-7.626C566.72,110.039,564.023,108.832,561.044,108.832z
			 M561.16,124.231c-2.54,0-4.613-2.075-4.613-4.615c0-2.541,2.073-4.616,4.613-4.616c2.541,0,4.614,2.075,4.614,4.616
			C565.774,122.157,563.701,124.231,561.16,124.231z"/>
		<path fill="#414042" d="M454.282,86.689c0-1.083-0.88-1.962-1.962-1.962h-19.378c-1.086,0-1.962,0.88-1.962,1.962
			s0.876,1.963,1.962,1.963h19.378C453.402,88.652,454.282,87.771,454.282,86.689z"/>
		<path fill="#414042" d="M461.203,99.839h-23.994c-1.086,0-1.962,0.88-1.962,1.961c0,1.083,0.879,1.962,1.962,1.962h23.994
			c1.083,0,1.962-0.88,1.962-1.962C463.165,100.719,462.284,99.839,461.203,99.839z"/>
	</g>
	<polygon fill="none" stroke="#414042" stroke-width="3" stroke-miterlimit="10" points="657.319,94.856 642.61,81.527 
		642.61,89.588 628.261,89.588 628.261,100.06 642.61,100.06 642.61,108.186 	"/>
	<g>
		<g>
			<path fill="#C03A2B" stroke="#C03A2B" stroke-miterlimit="10" d="M808.062,87.478v18.328v23.893h-23.539v-22.641H768.34v22.641
				H744.8v-23.893V87.478l31.633-25.422L808.062,87.478z M815.51,79.256l-39.079-31.745l-39.082,31.745v10.814l39.082-31.745
				l39.079,31.745V79.256L815.51,79.256z"/>
		</g>
		
			<line fill="#C03A2B" stroke="#C03A2B" stroke-width="5" stroke-miterlimit="10" x1="856.87" y1="58.565" x2="828.467" y2="71.637"/>
		
			<line fill="#C03A2B" stroke="#C03A2B" stroke-width="5" stroke-miterlimit="10" x1="825.261" y1="22.198" x2="805.761" y2="46.639"/>
		
			<line fill="#C03A2B" stroke="#C03A2B" stroke-width="5" stroke-miterlimit="10" x1="728.182" y1="19.682" x2="746.517" y2="45.007"/>
		
			<line fill="#C03A2B" stroke="#C03A2B" stroke-width="5" stroke-miterlimit="10" x1="694.906" y1="63.21" x2="723.99" y2="74.681"/>
		
			<line fill="#C03A2B" stroke="#C03A2B" stroke-width="5" stroke-miterlimit="10" x1="776.417" y1="3.161" x2="775.697" y2="34.418"/>
	</g>
	
		<text transform="matrix(1.0577 -0.015 0.0142 0.9999 139.4932 114.4473)" fill="#414042" font-family="'Roboto-Light'" font-size="54.929">+</text>
	
		<text transform="matrix(1.0577 -0.015 0.0142 0.9999 346.7705 114.4473)" fill="#414042" font-family="'Roboto-Light'" font-size="54.929">+</text>
</g>
</svg>
