<?xml version="1.0" encoding="utf-8"?>
<!-- Generator: Adobe Illustrator 16.0.0, SVG Export Plug-In . SVG Version: 6.00 Build 0)  -->
<!DOCTYPE svg PUBLIC "-//W3C//DTD SVG 1.1//EN" "http://www.w3.org/Graphics/SVG/1.1/DTD/svg11.dtd">
<svg version="1.1" id="Layer_1" xmlns="http://www.w3.org/2000/svg" xmlns:xlink="http://www.w3.org/1999/xlink" x="0px" y="0px"
	 width="1443px" height="210px" viewBox="-496.049 44.698 1443 210" enable-background="new -496.049 44.698 1443 210"
	 xml:space="preserve">
<g>
	<path fill="#C03A2B" stroke="#C03A2B" stroke-miterlimit="10" d="M-392.85,52.347c13.647,0.003,26.439,2.426,38.373,7.146
		c11.937,4.724,22.442,11.218,31.528,19.452c-7.881,7.227-15.758,14.529-23.634,21.92c-12.675-11.65-28.112-17.503-46.305-17.223
		c-18.009,0.289-33.552,6.676-46.631,19.564c-12.706,12.873-19.054,28.348-19.065,46.041c-0.009,17.686,6.329,32.588,18.995,44.34
		c13.049,11.377,28.552,16.118,46.537,14.693c9.844-0.786,18.979-3.316,27.41-7.577c8.427-4.249,15.781-9.815,22.041-16.714
		c0.015-8.334,0.03-16.675,0.045-25.012c-16.484,0.842-32.958,1.718-49.436,2.633c0.013-10.346,0.028-20.684,0.042-31.027
		c27.466-1.089,54.937-2.106,82.412-3.051c-0.042,21.433-0.084,42.863-0.125,64.297c-4.554,6.344-9.822,12.246-15.8,17.732
		c-5.979,5.49-12.467,10.328-19.48,14.507c-7.004,4.177-14.496,7.61-22.447,10.276c-7.951,2.672-16.178,4.42-24.703,5.229
		c-27.239,2.605-50.399-4.242-69.492-21.557c-19.289-17.082-28.934-39.682-28.934-67c-0.004-27.123,9.654-50.807,28.99-70.124
		C-443.38,61.55-420.154,52.339-392.85,52.347z"/>
	<path fill="#C03A2B" stroke="#C03A2B" stroke-miterlimit="10" d="M-146.245,220.827c-12.659-17.976-25.317-36.146-37.969-54.561
		c-18.58,0.779-37.155,1.611-55.726,2.496c-0.047,19.36-0.094,38.72-0.138,58.081c-10.896,0.775-21.791,1.581-32.683,2.413
		c0.127-58.971,0.261-117.94,0.387-176.91c32.89,0,65.781,0,98.674,0c18.007,0.011,33.443,5.538,46.31,16.409
		c12.862,10.877,19.276,23.809,19.244,38.992c-0.025,11.516-3.943,22.051-11.736,31.73c-7.603,9.525-17.295,16.517-29.061,21.004
		c13.511,19.668,27.019,39.088,40.534,58.301C-121.021,219.426-133.633,220.108-146.245,220.827z M-173.769,80.783
		c-21.991,0.227-43.982,0.469-65.972,0.73c-0.039,19.278-0.09,38.555-0.133,57.83c21.986-0.697,43.976-1.344,65.962-1.934
		c8.915-0.268,16.599-3.273,23.06-8.953c6.458-5.677,9.696-12.367,9.714-20.123c0.023-7.59-3.191-14.078-9.619-19.512
		C-157.192,83.393-164.864,80.696-173.769,80.783z"/>
	<path fill="#C03A2B" stroke="#C03A2B" stroke-miterlimit="10" d="M94.242,145.278c-0.021,18.35-8.103,34.121-24.256,47.502
		c-16.343,13.231-35.802,20.236-58.388,20.981c-22.396,0.728-41.732-5.039-58.024-17.646
		c-15.905-12.913-23.838-28.887-23.792-47.709c0.076-32.02,0.144-64.038,0.214-96.059c10.902,0,21.804,0,32.704,0
		c-0.065,31.748-0.135,63.494-0.199,95.243c-0.029,11.286,4.689,20.732,14.165,28.268c9.658,7.691,21.317,11.295,34.983,10.926
		c13.656-0.376,25.236-4.604,34.742-12.655c9.877-8.063,14.828-17.509,14.84-28.418c0.047-31.12,0.092-62.241,0.139-93.363
		c10.995,0,21.989,0,32.984,0C94.315,83.328,94.281,114.297,94.242,145.278z"/>
	<path fill="#C03A2B" stroke="#C03A2B" stroke-miterlimit="10" d="M279.419,131.434c11.572,9.012,17.369,20.082,17.381,33.166
		c0.006,12.475-5.584,23.297-16.777,32.477c-11.193,8.887-24.771,13.27-40.715,13.229c-35.695-0.085-71.388,0.13-107.078,0.633
		c0.049-52.862,0.09-105.725,0.139-158.59c35.64,0,71.275,0,106.917,0c15.924-0.003,29.469,4.555,40.668,13.675
		c11.191,8.976,16.789,19.785,16.801,32.414C296.769,111.373,290.984,122.373,279.419,131.434z M239.287,78.75
		c-24.742-0.012-49.488,0.002-74.235,0.045c-0.006,13.219-0.014,26.441-0.019,39.665c24.756-0.095,49.507-0.133,74.26-0.109
		c3.225,0.007,6.348-0.521,9.393-1.577c3.031-1.059,5.688-2.503,7.965-4.313c2.275-1.819,4.023-3.944,5.258-6.368
		c1.232-2.425,1.855-5.006,1.852-7.74c-0.006-2.574-0.619-5.081-1.855-7.518c-1.23-2.428-2.99-4.553-5.264-6.383
		c-2.273-1.822-4.938-3.232-7.963-4.217C245.64,79.237,242.511,78.752,239.287,78.75z M239.304,183.904
		c3.223,0,6.354-0.485,9.395-1.459c3.033-0.976,5.701-2.367,7.971-4.183c2.275-1.811,4.027-3.928,5.268-6.356
		c1.221-2.418,1.848-4.923,1.844-7.507c-0.002-5.316-2.471-9.953-7.404-13.918c-4.748-3.957-10.439-5.951-17.078-5.953
		c-24.761-0.033-49.521,0.017-74.279,0.146c-0.012,13.149-0.017,26.293-0.024,39.438
		C189.765,183.923,214.534,183.856,239.304,183.904z"/>
	<path fill="#C03A2B" stroke="#C03A2B" stroke-miterlimit="10" d="M466.109,52.347c0.018,9.053,0.037,18.102,0.057,27.151
		c-32.902-0.208-65.797-0.367-98.693-0.487c0.023,17.622,0.047,35.241,0.07,52.862c32.91,0.359,65.822,0.846,98.727,1.455
		c0.02,9.127,0.035,18.254,0.057,27.383c-32.912-0.817-65.828-1.467-98.748-1.947c0.021,17.695,0.045,35.394,0.068,53.091
		c-10.914-0.235-21.83-0.447-32.742-0.633c-0.059-52.956-0.111-105.917-0.164-158.875C378.529,52.347,422.318,52.347,466.109,52.347
		z"/>
	<path fill="#C03A2B" stroke="#C03A2B" stroke-miterlimit="10" d="M504.123,52.347c10.898,0,21.799,0,32.699,0
		c0.107,45.93,0.211,91.858,0.32,137.787c32.906,1.314,65.807,2.837,98.695,4.569c0.027,9.523,0.049,19.045,0.068,28.57
		c-43.789-2.768-87.6-5.094-131.426-6.975C504.359,161.649,504.24,106.998,504.123,52.347z"/>
	<path fill="#C03A2B" stroke="#C03A2B" stroke-miterlimit="10" d="M673.503,52.347c10.902,0,21.805,0,32.699,0
		c0.135,58.597,0.266,117.184,0.404,175.779c-10.896-0.808-21.793-1.587-32.688-2.339
		C673.783,167.973,673.642,110.162,673.503,52.347z"/>
	<path fill="#C03A2B" stroke="#C03A2B" stroke-miterlimit="10" d="M898.621,52.347c13.934,0,27.867,0,41.801,0
		c-25.686,32.892-51.336,64.368-76.961,94.659c25.691,32.812,51.354,66.966,76.961,102.682c-13.891-1.533-27.787-3.023-41.686-4.466
		c-18.732-25.383-37.49-49.976-56.264-73.866c-18.623,21.632-37.236,42.666-55.844,63.195c-14.008-1.212-28.023-2.379-42.037-3.5
		c25.693-27.722,51.393-56.323,77.109-86.032c-25.805-32.074-51.643-62.885-77.48-92.671c14.025,0,28.055,0,42.082,0
		c18.713,22.141,37.416,44.87,56.105,68.276C861.13,98.516,879.867,75.785,898.621,52.347z"/>
</g>
</svg>
